<?xml version="1.0" encoding="UTF-8"?>
<svg id="uuid-e347bea3-724a-42c3-a6c4-8821b13347d9" data-name="Layer 1" xmlns="http://www.w3.org/2000/svg" viewBox="0 0 150 150">
  <path d="m127,101.06H23v-53.58h104v53.58Zm-100-4h96v-45.58H27v45.58Z" style="fill: #2e3192;"/>
  <g>
    <path d="m74.91,90.55c-9.01-.04-16.23-7.32-16.2-16.32.03-9.03,7.39-16.32,16.4-16.26,8.94.07,16.24,7.46,16.19,16.4-.05,8.97-7.39,16.22-16.38,16.17Zm.07-29.7c-7.41,0-13.41,6.01-13.42,13.43,0,7.42,6,13.41,13.42,13.41,7.41,0,13.43-6.02,13.43-13.42,0-7.4-6.03-13.42-13.43-13.42Z" style="fill: #2e3192;"/>
    <path d="m77.68,71.84c-.26,2.65-2.36,4.34-5.69,4.44,2.03,2.1,4.24,4.75,6.42,7.43h-2.49c-2.03-2.44-3.92-4.7-6.37-7.3v-1.61h1.43c2.81,0,4.31-1.17,4.5-2.96h-5.92v-1.3h5.85c-.36-1.51-1.74-2.26-4-2.26h-1.84v-1.69h10.91v1.3h-4.26c.75.6,1.3,1.46,1.46,2.65h2.83v1.3h-2.81Z" style="fill: #2e3192;"/>
  </g>
  <g>
    <path d="m77.58,35.67h-37.54c-1.1,0-2-.9-2-2s.9-2,2-2h37.54c1.1,0,2,.9,2,2s-.9,2-2,2Z" style="fill: #2e3192;"/>
    <path d="m50.46,43.48c-.42,0-.84-.13-1.2-.4l-10.42-7.81c-.51-.38-.81-.99-.8-1.62,0-.64.32-1.23.84-1.6l10.71-7.63c.9-.64,2.15-.43,2.79.47.64.9.43,2.15-.47,2.79l-8.49,6.04,8.23,6.17c.88.66,1.06,1.92.4,2.8-.39.52-.99.8-1.6.8Z" style="fill: #2e3192;"/>
  </g>
  <g>
    <path d="m117.91,118.32h-37.54c-1.1,0-2-.9-2-2s.9-2,2-2h37.54c1.1,0,2,.9,2,2s-.9,2-2,2Z" style="fill: #2e3192;"/>
    <path d="m107.2,125.96c-.62,0-1.24-.29-1.63-.84-.64-.9-.43-2.15.47-2.79l8.49-6.05-8.23-6.17c-.88-.66-1.06-1.92-.4-2.8.66-.88,1.92-1.06,2.8-.4l10.42,7.81c.51.38.81.99.8,1.62,0,.64-.32,1.23-.84,1.6l-10.71,7.63c-.35.25-.76.37-1.16.37Z" style="fill: #2e3192;"/>
  </g>
</svg>