<?xml version="1.0" encoding="UTF-8"?>
<svg id="uuid-1d4b6c20-8884-476f-ad51-89cffd4c18a4" data-name="Layer 1" xmlns="http://www.w3.org/2000/svg" viewBox="0 0 150 150">
  <path d="m59.14,41.9c7.08.57,14.2-.34,21.28.67,7.34,1.04,10.81,5.31,10.35,12.76-.17,2.83-1.85,5.02-3.01,7.59,4.32.77,8.39,1.54,12,3.41,3.37,1.75,5.33.49,7.41-1.95,10.82-12.67,4.08-33.53-12.3-37.58-11.79-2.91-23.83-1.42-35.77-1.55-.49-.05-.74.16-.68.67l.02,15.13c-.04.51.12.85.7.83Z" style="fill: #fcb935;"/>
  <path d="m101.74,70.74c-6.16-3.22-12.78-4.77-19.71-4.97-8.68-.02-17.36-.04-26.04-.06-.29-.29-.59-.58-.88-.88.03-12.27.04-24.54.11-36.81,0-1.76-.02-2.98-2.41-2.9-6.3.22-12.61.19-18.92.26-.88.51-.61,1.38-.61,2.12-.01,31.44.03,62.88-.07,94.32,0,2.84,1.14,3.19,3.5,3.17,15.14-.08,30.28,0,45.43-.07,5.83-.03,11.53-1.01,16.97-3.18,10.83-4.31,17.07-12.3,17.64-23.99.58-11.92-4.13-21.34-15.01-27.03Zm-16.25,36.43c-2.67,1.12-4.93.53-7.37.55-7.62.04-15.25,0-22.87-.01-.02-8.99-.04-17.98-.05-26.97-.13.28-.33.57-.48.85.16-.28.35-.57.48-.85,8.8-.02,17.61-.21,26.41,0,7.36.18,12.19,4.39,13.05,10.76,1.14,8.36-1.64,12.5-9.17,15.67Z" style="fill: #f39738;"/>
</svg>