<?xml version="1.0" encoding="UTF-8"?>
<svg id="uuid-5a45c03d-50a0-488d-ac8a-50064a8b1d23" data-name="Layer 1" xmlns="http://www.w3.org/2000/svg" viewBox="0 0 150 150">
  <path d="m122.89,38.7c-.02-6.68-4.35-12.37-10.79-14.17-.49-.13-.98-.25-1.47-.36l-.75-.17H40.06l-.17.06s-.26.11-.28.11c-7.48,1.28-12.51,7.19-12.51,14.72-.01,24.08-.02,48.16,0,72.24,0,8.46,6.39,14.85,14.85,14.86,8.69,0,17.37,0,26.05,0,13.34,0,26.69,0,40.04-.02,1.13,0,2.21-.11,3.21-.33,7.07-1.54,11.64-7.32,11.65-14.71,0-7.83,0-15.66,0-23.49v-19.89c0-9.62.01-19.25-.01-28.87Zm-79.99-11.36l.07,1c8.1.04,16.98.07,27.94.07,5.69,0,11.38,0,17.08,0,5.69,0,11.38-.01,17.08-.01h2.34c5.69,0,10.14,3.77,11.08,9.37.1.61.1,1.29.1,1.94,0,23.52,0,47.04,0,70.57,0,6.69-4.7,11.37-11.42,11.37h-32.26s-32.26,0-32.26,0c-5.7,0-10.17-3.75-11.11-9.33-.11-.65-.11-1.35-.11-2.08v-.14c0-9.55,0-19.11,0-28.66v-6.38c0-3.47.01-6.94.02-10.41.02-8.11.05-16.49-.06-24.74-.04-3.08,1.11-5.97,3.25-8.14,2.17-2.19,5.11-3.4,8.28-3.4v-1h0Z" style="fill: #2e3192;"/>
  <path d="m69.5,109.77c0-.08,0-.18,0-.27-.03-.39-.06-.93.29-1.39.48-.63,1-1.23,1.51-1.8.35-.4.7-.8,1.03-1.2,3.23-3.95,7.24-9.28,9.67-15.48,2.2-5.63,2.73-11.13,1.58-16.36-.29-1.33-.85-2.73-1.61-4.04-1.66-2.86-4.49-3.28-6.03-3.28-2.52,0-5.08,1.11-6.37,2.77-1.81,2.33-2.68,5.08-3.35,7.71-.35,1.37-.66,2.78-.96,4.14-.32,1.45-.64,2.94-1.02,4.41-1.82,7.05-6.23,12.5-13.46,16.66-.42.24-.8.36-1.18.36-.66,0-1.21-.37-1.52-1.02-.68-1.44.6-2.18,1.02-2.42,5.29-3.08,8.75-6.77,10.62-11.32.67-1.64,1.08-3.37,1.51-5.21.23-.96.46-1.96.73-2.93.21-.72.4-1.45.6-2.18.59-2.18,1.19-4.43,2.03-6.57,1.98-5.08,5.9-7.88,11.02-7.88.94,0,1.94.09,2.95.28,3.07.56,5.46,2.51,7.08,5.8,1.7,3.44,1.96,7.15,2,9.99-.01,6.43-1.82,12.57-5.52,18.81-2.6,4.37-5.75,8.64-9.38,12.68-.16.21-.41.56-.88.65-.33.06-.66.08-.99.1l-1.42.11.06-1.11Z" style="fill: #2e3192;"/>
  <path d="m109.48,77.28c-.14,0-.29-.02-.44-.06-.82-.2-1.33-1.2-1.39-1.84-.07-.82-.09-1.65-.11-2.44-.04-1.38-.07-2.68-.34-3.93-2.46-11.57-8.17-19.62-17.47-24.62-3.79-2.04-8.1-3.07-12.82-3.07-1.06,0-2.16.05-3.28.15-6.86.63-12.54,2.6-17.37,6.03-1.18.84-2.24,1.81-3.37,2.84-.6.54-1.19,1.09-1.8,1.61-.57.49-1.09.73-1.58.73-.73-.04-1.26-.39-1.49-.96-.28-.67-.08-1.49.52-2.15,2.07-2.28,4.42-4.25,7.01-5.85,6.44-3.97,14.1-5.91,23.43-5.91,10.32.18,19.6,6.03,26.14,16.47,3.94,6.28,5.98,12.85,6.07,19.54,0,.39-.02.79-.04,1.18l-.02.44c-.05,1.09-.73,1.85-1.65,1.85Z" style="fill: #2e3192;"/>
  <path d="m94.87,105.51c-.38,0-.74-.13-1.09-.39-.61-.46-1.13-1.3-.15-2.7,1.99-2.85,3-6.19,3.73-9.09,1.46-5.84,2.99-12.65,2.59-19.55-.59-10.09-5.05-17.54-13.24-22.15-3.09-1.74-6.45-2.62-9.98-2.62-1.63,0-3.32.19-5.02.56l-.21.04c-.06.01-.13.02-.19.04-.31.1-.59.14-.85.14-.82,0-1.44-.49-1.66-1.3-.17-.66,0-1.13.19-1.41.29-.45.79-.73,1.48-.83.48-.07.96-.16,1.44-.25,1.1-.2,2.24-.41,3.4-.44.24,0,.47,0,.71,0,9.94,0,17.75,4.56,23.2,13.55,3.01,4.97,4.38,10.65,4.31,17.86-.49,6.6-1.48,15.14-4.79,23.32-.45,1.12-1.06,2.15-1.65,3.15-.18.3-.36.6-.53.9-.58,1.01-1.31,1.16-1.7,1.16Z" style="fill: #2e3192;"/>
  <path d="m44.29,96.2c-.55,0-1.45-.31-1.75-1-.25-.61.04-1.17.24-1.55.04-.07.07-.14.1-.2.2-.45.62-.58.76-.63,5.34-2.51,8.58-6.86,9.87-13.26.25-1.25.42-2.55.59-3.81.22-1.67.45-3.39.86-5.07,1.71-6.9,5.47-11.67,11.2-14.2,3.25-1.43,6.5-2.16,9.67-2.16s6.35.74,9.36,2.2c3.56,1.72,6.21,4.75,8.13,9.28.04.11.08.21.12.33l1.19,1.3-1.34.51c-.07.03-.14.06-.21.1-.26.12-.62.29-1.05.29-.46,0-1.3-.18-1.72-.8-.27-.41-.46-.83-.64-1.24-.09-.2-.18-.4-.28-.6-2.51-4.89-6.46-7.4-12.07-7.68-.5-.03-.99-.04-1.48-.04-4.15,0-7.57.97-10.47,2.95-3.88,2.66-6.29,6.62-7.37,12.11-.23,1.17-.38,2.4-.53,3.59-.18,1.42-.36,2.89-.68,4.33-1.45,6.52-5.05,11.43-10.71,14.58l-.15.09c-.39.22-.88.5-1.44.57h-.06s-.14.01-.14.01Z" style="fill: #2e3192;"/>
  <path d="m39.43,88.47s-.08-.07-.12-.1c-.26-.22-.66-.55-.76-1.11-.13-.72.42-1.67,1.11-1.91,5.04-1.79,6.34-6.06,7-10.4.62-4.12,1.26-8.38,2.94-12.43,2.5-6,6.85-10.54,12.95-13.49.33-.16.72-.32,1.16-.32.63,0,1.17.35,1.48.96.29.58.23,1.05.13,1.34-.24.71-.9,1.02-1.3,1.22-5.72,2.75-9.52,6.91-11.62,12.69-1.23,3.38-1.76,6.87-2.23,10.44-.4,3.01-1.34,7.37-4.85,10.59-.83.76-1.81,1.3-2.75,1.82-.36.2-.73.4-1.08.61-.25.15-.5.21-.75.27-.1.02-.21.05-.34.08l-.56.16-.41-.43Z" style="fill: #2e3192;"/>
  <path d="m58.83,109.03c-.39,0-.95-.14-1.41-.82-.38-.57-.38-1.06-.31-1.38.17-.73.79-1.09,1.21-1.33l.19-.12c4.78-3.06,8.45-7.04,10.91-11.81,3.03-5.89,4.28-12.46,3.71-19.51-.13-1.66.72-2.14,1.46-2.26.11-.02.22-.02.32-.02.38,0,1.61.14,1.71,1.91l.19,3.23c-.17,9.53-2.72,17.26-7.81,23.73-2.32,2.95-5.21,5.53-8.57,7.67-.06.04-.13.08-.19.13-.35.24-.82.57-1.41.57Z" style="fill: #2e3192;"/>
  <path d="m82.1,110.29c-.17,0-.34-.02-.52-.04-.09-.01-.18-.02-.27-.03l-1.05-.03.1-1.04c0-.08,0-.18,0-.27-.01-.41-.03-1.03.44-1.46,3.33-3.09,5.39-7.04,7.22-10.83,3.2-6.61,4.56-12.89,4.16-19.2-.01-.2-.04-.41-.06-.61-.06-.49-.12-1.04-.06-1.6.07-.56.42-.97.68-1.26.07-.08.15-.16.2-.25l.71-1,.81.92c.06.07.14.14.21.2.31.28.73.65.79,1.25.13,1.09.18,2.2.24,3.27l.06,1.16c.02,7.44-2.19,14.85-6.74,22.7-1.01,1.74-2.23,3.36-3.41,4.92-.44.58-.88,1.17-1.31,1.76-.4.56-.92,1-1.44,1.26-.23.11-.49.17-.79.17Z" style="fill: #2e3192;"/>
  <path d="m40.13,77.3c-.43,0-.81-.16-1.09-.45-.53-.55-.57-1.41-.54-2.18.42-6.86,2.28-13.21,5.52-18.88.29-.51.73-.93,1.2-1.17.16-.08.34-.12.54-.12.44,0,1.45.28,1.58,1.1.1.58.03,1.21-.18,1.71-.39.94-.81,1.86-1.23,2.79-.82,1.8-1.67,3.66-2.22,5.54-.62,2.13-.95,4.41-1.28,6.62-.13.91-.27,1.82-.42,2.73-.02.1-.02.2-.02.31-.02.46-.08,1.84-1.66,2.01h-.19Z" style="fill: #2e3192;"/>
  <path d="m104.98,99.84c-.24,0-.5-.05-.75-.16-.46-.2-1.47-.83-.85-2.49,1.49-3.96,2.55-8.08,3.16-12.23.08-.52.13-1.05.19-1.57.08-.76.17-1.55.31-2.33.1-.57.51-.93.81-1.19.08-.07.15-.13.22-.2l.67-.74,1.8,1.72-.04.46c-.5,6.08-1.75,11.74-3.84,17.31-.44,1.17-1.17,1.41-1.71,1.41Z" style="fill: #2e3192;"/>
</svg>